<mxfile host="app.diagrams.net" modified="2023-04-20T01:22:06.184Z" agent="Mozilla/5.0 (Windows NT 10.0; Win64; x64) AppleWebKit/537.36 (KHTML, like Gecko) Chrome/112.0.0.0 Safari/537.36" etag="4F9PT9S1yUDJAUhc4b5s" version="21.1.8" type="github">
  <diagram name="Page-1" id="Et9ieoYarkX6nhCRH8Cg">
    <mxGraphModel dx="880" dy="452" grid="1" gridSize="10" guides="1" tooltips="1" connect="1" arrows="1" fold="1" page="1" pageScale="1" pageWidth="827" pageHeight="1169" math="0" shadow="0">
      <root>
        <mxCell id="0" />
        <mxCell id="1" parent="0" />
        <mxCell id="NLN-9L0Z86SyIu5LshTe-1" value="User uploads the image from the frontend." style="rounded=1;whiteSpace=wrap;html=1;" vertex="1" parent="1">
          <mxGeometry x="194" y="60" width="220" height="30" as="geometry" />
        </mxCell>
        <mxCell id="NLN-9L0Z86SyIu5LshTe-2" value="Convert to the 8-bit grayscale format" style="rounded=1;whiteSpace=wrap;html=1;" vertex="1" parent="1">
          <mxGeometry x="194" y="120" width="220" height="30" as="geometry" />
        </mxCell>
        <mxCell id="NLN-9L0Z86SyIu5LshTe-3" value="Grayscale image converted into a string representation" style="rounded=1;whiteSpace=wrap;html=1;" vertex="1" parent="1">
          <mxGeometry x="194" y="180" width="220" height="30" as="geometry" />
        </mxCell>
        <mxCell id="NLN-9L0Z86SyIu5LshTe-4" value="Compress String" style="rounded=1;whiteSpace=wrap;html=1;" vertex="1" parent="1">
          <mxGeometry x="194" y="240" width="220" height="30" as="geometry" />
        </mxCell>
        <mxCell id="NLN-9L0Z86SyIu5LshTe-5" value="Store string in DB along with other data" style="rounded=1;whiteSpace=wrap;html=1;" vertex="1" parent="1">
          <mxGeometry x="194" y="300" width="220" height="30" as="geometry" />
        </mxCell>
      </root>
    </mxGraphModel>
  </diagram>
</mxfile>
